# xmcd CD database file
# Copyright (C) 1993-1998 Ti Kan
#
# Track frame offsets:
#  150
#  20150
#  45600
#  63437
#  82742
#  103600
#  118720
#  134025
#  149925
#
# Disc length: 2284 seconds
#
# Revision: 1
# Processed by: cddbd v1.4b41PL1 Copyright (c) Steve Scherf et al.
# Submitted via: CDWizzard Release:4.61
#
DISCID=8608ea09
DTITLE=Bobby Womack - Womagic
DYEAR=1900
DGENRE=
TTITLE0=(I Wanna) Make Love To You
TTITLE1=When The Weekend Comes
TTITLE2=The Things We Do (When We're Lonely)
TTITLE3=I Can't Stay Mad
TTITLE4=Can't cha Hear The Children Calling
TTITLE5=Outside Myself
TTITLE6=I Ain't Got To Love Nobody Else
TTITLE7=More Than Love
TTITLE8=It Ain't Me
EXTD=
EXTT0=
EXTT1=
EXTT2=
EXTT3=
EXTT4=
EXTT5=
EXTT6=
EXTT7=
EXTT8=
PLAYORDER=
